<svg xmlns="http://www.w3.org/2000/svg" viewBox="0 0 180 180" width="180" height="180">
  <rect width="180" height="180" rx="40" fill="#2D6A4F"/>
  <defs>
    <clipPath id="hh">
      <ellipse cx="90" cy="72" rx="52" ry="60"/>
    </clipPath>
  </defs>
  <ellipse cx="90" cy="72" rx="52" ry="60" fill="none" stroke="white" stroke-width="7"/>
  <g clip-path="url(#hh)">
    <line x1="36" y1="50"  x2="144" y2="50"  stroke="white" stroke-width="3.5" opacity="0.9"/>
    <line x1="36" y1="65"  x2="144" y2="65"  stroke="white" stroke-width="3.5" opacity="0.9"/>
    <line x1="36" y1="80"  x2="144" y2="80"  stroke="white" stroke-width="3.5" opacity="0.9"/>
    <line x1="36" y1="95"  x2="144" y2="95"  stroke="white" stroke-width="3.5" opacity="0.9"/>
    <line x1="62"  y1="10" x2="62"  y2="134" stroke="white" stroke-width="3.5" opacity="0.9"/>
    <line x1="77"  y1="10" x2="77"  y2="134" stroke="white" stroke-width="3.5" opacity="0.9"/>
    <line x1="90"  y1="10" x2="90"  y2="134" stroke="white" stroke-width="3.5" opacity="0.9"/>
    <line x1="103" y1="10" x2="103" y2="134" stroke="white" stroke-width="3.5" opacity="0.9"/>
    <line x1="118" y1="10" x2="118" y2="134" stroke="white" stroke-width="3.5" opacity="0.9"/>
  </g>
  <path d="M78 130 L82 152 L98 152 L102 130" fill="none" stroke="white" stroke-width="7" stroke-linejoin="round"/>
  <rect x="82" y="150" width="16" height="22" rx="5" fill="white"/>
  <rect x="80" y="170" width="20" height="7" rx="3" fill="white"/>
</svg>
